<svg preserveAspectRatio="none" overflow="visible" style="display: block;" width="18.9661" height="24.0003" viewBox="0 0 18.9661 24.0003" fill="none" xmlns="http://www.w3.org/2000/svg">
<g id="SVGRepo_iconCarrier">
<path id="Vector" fill-rule="evenodd" clip-rule="evenodd" d="M7.84834 16.6563C7.20739 19.9613 6.37868 22.3443 4.06339 24.0003C3.34764 19.0069 5.11375 15.2573 5.93256 11.2733C4.53493 8.9594 6.10056 4.30058 9.04551 5.44693C12.6695 6.8601 6.16834 13.7142 10.7086 14.6135C15.4493 15.5509 17.1462 7.46152 14.2083 4.52223C9.96175 0.278454 1.50104 3.87704 2.81821 9.89398C3.34904 12.3194 1.54339 13.0098 1.54339 13.0098C0.0808015 12.4168 -0.0589486 10.3641 0.0158639 8.36082C0.183864 3.75422 4.21868 0.528342 8.26621 0.0808169C13.3853 -0.483896 18.1895 1.93164 18.8516 6.67517C19.5999 12.0272 16.6394 18.1754 11.1646 17.7575C9.68221 17.6446 7.84834 16.6563 7.84834 16.6563Z" fill="#F2EEE6"/>
</g>
</svg>
