<svg preserveAspectRatio="none" width="100%" height="100%" overflow="visible" style="display: block;" viewBox="0 0 430 430" fill="none" xmlns="http://www.w3.org/2000/svg">
<g id="imgi_14_6891ea3c29f1da9e4e4a4196_circle-2 1">
<path id="Vector" opacity="0.75" d="M211.628 318.956L208.389 386.182L207.244 386.127L210.482 318.904C210.863 318.924 211.245 318.941 211.628 318.956ZM209.222 318.835C209.603 318.858 209.984 318.881 210.366 318.899L207.129 386.122L205.984 386.067L209.222 318.835ZM225.015 386.053L223.871 386.117L220.065 318.937C220.447 318.921 220.828 318.902 221.21 318.882L225.015 386.053ZM226.273 385.981L225.701 386.014L225.127 386.046L221.323 318.877C221.705 318.856 222.086 318.833 222.467 318.808L226.273 385.981ZM199.697 317.81C200.074 317.869 200.452 317.925 200.832 317.98L190.583 384.513L190.015 384.427L189.449 384.339L199.697 317.81ZM198.45 317.609C198.827 317.673 199.206 317.733 199.584 317.793L189.335 384.321L188.768 384.234L188.201 384.147L198.45 317.609ZM242.793 384.113L242.228 384.206L241.661 384.298L230.858 317.917C231.237 317.861 231.615 317.802 231.992 317.743L242.793 384.113ZM244.038 383.911L243.473 384.004L242.906 384.096L232.106 317.724C232.484 317.663 232.862 317.601 233.238 317.537L244.038 383.911ZM189.088 315.591C189.457 315.689 189.827 315.785 190.198 315.879L173.046 380.993L172.493 380.847L171.938 380.7L189.088 315.591ZM187.872 315.261C188.24 315.363 188.608 315.463 188.979 315.562L171.828 380.67L171.273 380.526L170.719 380.379L187.872 315.261ZM260.272 380.328L259.166 380.628L241.493 315.771C241.863 315.676 242.232 315.579 242.601 315.479L260.272 380.328ZM261.492 379.996L260.385 380.297L242.714 315.449C243.083 315.348 243.451 315.246 243.819 315.142L261.492 379.996ZM178.772 312.269C179.129 312.406 179.488 312.538 179.847 312.671L155.974 375.657L154.902 375.251L178.772 312.269ZM177.6 311.813C177.955 311.953 178.311 312.092 178.668 312.228L154.798 375.211L153.724 374.804L177.6 311.813ZM277.262 374.734L276.192 375.149L251.842 312.511C252.201 312.377 252.558 312.242 252.914 312.104L277.262 374.734ZM278.436 374.277L277.367 374.693L253.02 312.062C253.377 311.924 253.733 311.784 254.088 311.642L278.436 374.277ZM168.872 307.878C169.212 308.051 169.554 308.223 169.897 308.391L139.557 368.567L138.532 368.053L168.872 307.878ZM167.749 307.3C168.088 307.478 168.427 307.653 168.769 307.826L138.43 368L137.405 367.484L167.749 307.3ZM293.571 367.395L293.06 367.659L292.552 367.921L261.793 308.179C262.135 308.008 262.477 307.836 262.816 307.662L293.571 367.395ZM294.692 366.819L294.182 367.081L293.672 367.344L262.917 307.609C263.256 307.434 263.596 307.259 263.934 307.08L294.692 366.819ZM159.486 302.474C159.807 302.681 160.13 302.887 160.453 303.092L123.966 359.8L123.485 359.49L123.003 359.18L159.486 302.474ZM158.433 301.782C158.751 301.993 159.07 302.204 159.391 302.412L122.907 359.119L122.425 358.808L121.942 358.498L158.433 301.782ZM309.024 358.394L308.545 358.708L308.065 359.024L271.231 302.826C271.554 302.619 271.875 302.412 272.195 302.202L309.024 358.394ZM310.08 357.703L309.601 358.018L309.121 358.331L272.291 302.139C272.611 301.929 272.928 301.717 273.246 301.503L310.08 357.703ZM150.72 296.122C151.018 296.363 151.318 296.6 151.618 296.838L109.38 349.451L108.933 349.092L108.485 348.735L150.72 296.122ZM149.744 295.325C150.039 295.569 150.336 295.811 150.633 296.052L108.398 348.662L107.95 348.303L107.502 347.945L149.744 295.325ZM323.454 347.824L323.009 348.187L322.566 348.551L280.058 296.51C280.358 296.271 280.655 296.03 280.952 295.788L323.454 347.824ZM324.429 347.027L323.984 347.391L323.54 347.752L281.039 295.719C281.335 295.477 281.629 295.233 281.922 294.988L324.429 347.027ZM142.667 288.896C142.938 289.166 143.211 289.435 143.485 289.701L95.956 337.635L95.5473 337.231L95.1409 336.828L142.667 288.896ZM141.777 288C142.044 288.273 142.314 288.545 142.585 288.814L95.0579 336.746L94.6515 336.343L94.2439 335.939L141.777 288ZM336.696 335.806L336.292 336.213L335.888 336.62L288.177 289.311C288.45 289.043 288.72 288.773 288.989 288.503L336.696 335.806ZM337.586 334.91L337.183 335.317L336.778 335.725L289.071 288.419C289.34 288.147 289.608 287.874 289.874 287.599L337.586 334.91ZM135.409 280.873C135.649 281.17 135.893 281.464 136.138 281.758L83.8366 324.479L83.4737 324.034L83.112 323.591L135.409 280.873ZM134.619 279.891C134.857 280.19 135.096 280.488 135.336 280.784L83.0403 323.502L82.6787 323.057L82.3158 322.615L134.619 279.891ZM348.611 322.469L347.894 323.362L295.503 281.301C295.746 281.007 295.988 280.711 296.228 280.414L348.611 322.469ZM349.403 321.485L348.684 322.38L296.299 280.323C296.538 280.025 296.777 279.726 297.012 279.426L349.403 321.485ZM129.025 272.142C129.235 272.462 129.446 272.779 129.658 273.097L73.1627 310.129L72.5334 309.17L129.025 272.142ZM128.342 271.082C128.547 271.406 128.755 271.727 128.963 272.047L72.4717 309.074L71.8436 308.115L128.342 271.082ZM359.068 307.958L358.758 308.44L358.448 308.924L301.953 272.574C302.164 272.255 302.373 271.934 302.58 271.613L359.068 307.958ZM359.752 306.9L359.442 307.38L359.131 307.863L302.643 271.517C302.85 271.196 303.054 270.874 303.258 270.549L359.752 306.9ZM124.117 263.81L64.0453 294.742L63.7822 294.231L63.5201 293.722L123.589 262.794C123.763 263.134 123.94 263.473 124.117 263.81ZM123.536 262.693L63.4698 293.62L63.2077 293.111L62.9446 292.602L123.02 261.669C123.191 262.012 123.363 262.353 123.536 262.693ZM367.95 292.436L367.692 292.947L367.434 293.46L307.455 263.216C307.63 262.877 307.804 262.537 307.976 262.196L367.95 292.436ZM368.519 291.31L368.261 291.822L368.002 292.332L308.029 262.093C308.201 261.752 308.371 261.409 308.538 261.066L368.519 291.31ZM119.164 252.929C119.301 253.286 119.441 253.642 119.584 253.997L56.5875 278.485L56.3803 277.951L56.1721 277.418L119.164 252.929ZM118.716 251.752C118.85 252.11 118.985 252.466 119.123 252.822L56.1307 277.31L55.9235 276.777L55.7163 276.241L118.716 251.752ZM375.161 276.069L374.754 277.14L311.943 253.334C312.082 252.978 312.22 252.621 312.355 252.263L375.161 276.069ZM375.609 274.889L375.203 275.961L312.396 252.155C312.531 251.799 312.664 251.44 312.795 251.081L375.609 274.889ZM115.797 242.658C115.897 243.027 115.999 243.395 116.103 243.763L50.8676 261.54L50.5675 260.433L115.797 242.658ZM115.476 241.439C115.571 241.809 115.669 242.178 115.769 242.546L50.5384 260.322L50.2383 259.217L115.476 241.439ZM380.622 259.038L380.477 259.593L380.33 260.147L315.361 243.031C315.462 242.663 315.561 242.294 315.658 241.924L380.622 259.038ZM380.943 257.818L380.798 258.373L380.651 258.928L315.688 241.814C315.784 241.443 315.878 241.073 315.971 240.701L380.943 257.818ZM113.535 232.091C113.595 232.468 113.657 232.846 113.722 233.222L46.9539 244.088L46.8622 243.522L46.7703 242.956L113.535 232.091ZM113.343 230.845C113.399 231.223 113.457 231.601 113.517 231.979L46.7524 242.843L46.6594 242.277L46.5676 241.712L113.343 230.845ZM384.272 241.529L384.098 242.662L317.674 232.428C317.736 232.052 317.795 231.675 317.853 231.296L384.272 241.529ZM384.464 240.283L384.289 241.416L317.87 231.183C317.927 230.806 317.982 230.427 318.035 230.049L384.464 240.283ZM112.387 221.35C112.408 221.732 112.429 222.113 112.454 222.494L44.8835 226.322L44.8521 225.75L44.8196 225.178L112.387 221.35ZM112.326 220.09C112.342 220.473 112.36 220.855 112.38 221.236L44.8118 225.063L44.7804 224.491L44.7479 223.919L112.326 220.09ZM386.071 223.735L386.017 224.881L318.858 221.646C318.88 221.264 318.901 220.882 318.919 220.501L386.071 223.735ZM386.133 222.476L386.077 223.622L318.924 220.385C318.941 220.004 318.956 219.622 318.969 219.239L386.133 222.476ZM112.353 210.55C112.335 210.932 112.318 211.314 112.304 211.695L44.683 208.439L44.7379 207.293L112.353 210.55ZM386.034 206.424L386.069 206.996L318.92 210.799C318.903 210.417 318.882 210.035 318.86 209.654L386.004 205.851L386.034 206.424ZM112.421 209.291C112.398 209.671 112.378 210.052 112.359 210.435L44.7435 207.179L44.7984 206.034L112.421 209.291ZM385.963 205.165L385.997 205.737L318.854 209.538C318.832 209.157 318.808 208.776 318.781 208.395L385.931 204.593L385.963 205.165ZM113.434 199.806C113.376 200.183 113.321 200.56 113.267 200.938L46.3526 190.631L46.4388 190.065L46.5262 189.499L113.434 199.806ZM384.157 188.638L384.248 189.202L317.858 200.005C317.801 199.627 317.741 199.249 317.681 198.873L384.063 188.072L384.157 188.638ZM113.632 198.56C113.569 198.938 113.51 199.315 113.452 199.692L46.5429 189.385L46.6315 188.818L46.7177 188.253L113.632 198.56ZM383.954 187.393L384.046 187.958L317.662 198.76C317.6 198.383 317.536 198.005 317.47 197.63L383.862 186.828L383.954 187.393ZM115.631 189.232C115.534 189.603 115.438 189.972 115.345 190.343L49.8732 173.096L50.0188 172.542L50.1655 171.987L115.631 189.232ZM380.577 171.698L315.67 189.384C315.574 189.014 315.475 188.645 315.375 188.276L380.277 170.591L380.577 171.698ZM115.96 188.014C115.858 188.382 115.758 188.752 115.66 189.122L50.1935 171.877L50.3391 171.322L50.4858 170.767L115.96 188.014ZM380.248 170.482L315.345 188.167C315.243 187.798 315.14 187.43 315.034 187.063L379.948 169.375L380.248 170.482ZM118.925 178.949C118.79 179.305 118.656 179.664 118.524 180.023L55.2068 156.025L55.6122 154.953L118.925 178.949ZM374.891 154.138L375.1 154.674L312.377 179.053C312.242 178.697 312.104 178.34 311.964 177.984L374.685 153.605L374.891 154.138ZM119.379 177.772C119.24 178.128 119.102 178.484 118.965 178.842L55.6558 154.846L56.0612 153.773L119.379 177.772ZM374.435 152.963L374.645 153.497L311.923 177.878C311.783 177.521 311.642 177.166 311.498 176.811L374.227 152.43L374.435 152.963ZM123.283 169.07C123.11 169.412 122.939 169.754 122.77 170.097L62.2962 139.606L62.556 139.093L62.8136 138.582L123.283 169.07ZM367.609 137.804L367.87 138.313L308.011 169.131C307.839 168.789 307.666 168.449 307.489 168.109L367.345 137.293L367.609 137.804ZM123.858 167.949C123.682 168.287 123.506 168.627 123.334 168.967L62.8651 138.48L63.1237 137.967L63.3813 137.456L123.858 167.949ZM367.033 136.683L367.296 137.193L307.436 168.011C307.261 167.671 307.082 167.333 306.902 166.996L366.77 136.174L367.033 136.683ZM128.646 159.702C128.439 160.023 128.234 160.345 128.03 160.669L71.063 124.015L71.3732 123.534L71.6834 123.051L128.646 159.702ZM358.972 122.8L302.632 159.726C302.424 159.405 302.215 159.084 302.006 158.765L358.344 121.841L358.972 122.8ZM129.336 158.646C129.125 158.964 128.916 159.284 128.709 159.605L71.7484 122.956L72.3687 121.992L129.336 158.646ZM357.968 121.266L358.282 121.745L301.943 158.67C301.733 158.351 301.519 158.035 301.306 157.718L357.654 120.786L357.968 121.266ZM134.957 150.945C134.718 151.243 134.48 151.542 134.244 151.843L81.4133 109.429L82.1311 108.536L134.957 150.945ZM348.136 107.857L348.501 108.301L296.299 150.937C296.06 150.639 295.818 150.343 295.576 150.047L347.775 107.413L348.136 107.857ZM135.753 149.966C135.51 150.26 135.269 150.556 135.029 150.854L82.2039 108.446L82.9216 107.553L135.753 149.966ZM347.341 106.88L347.704 107.323L295.504 149.959C295.261 149.664 295.017 149.371 294.77 149.078L346.979 106.435L347.341 106.88ZM142.143 142.891C141.874 143.163 141.606 143.435 141.34 143.709L93.2294 96.0043L93.6336 95.5978L94.0379 95.1901L142.143 142.891ZM336.165 94.5709L336.572 94.9751L289.088 142.86C288.82 142.588 288.549 142.319 288.278 142.05L335.758 94.1689L336.165 94.5709ZM143.036 141.999C142.765 142.267 142.494 142.536 142.224 142.808L94.1196 95.1085L94.5227 94.702L94.927 94.2943L143.036 141.999ZM335.268 93.6841L335.674 94.0871L288.195 141.968C287.923 141.699 287.648 141.433 287.373 141.167L334.86 93.2798L335.268 93.6841ZM150.125 135.622C149.829 135.865 149.536 136.109 149.242 136.355L106.387 83.887L106.831 83.5242L107.275 83.1625L150.125 135.622ZM323.313 82.9699L281.079 135.575C280.783 135.333 280.487 135.093 280.189 134.854L322.42 82.2521L323.313 82.9699ZM151.104 134.83C150.806 135.068 150.508 135.31 150.212 135.552L107.361 83.0908L107.806 82.7269L108.25 82.3641L151.104 134.83ZM321.884 81.8232L322.331 82.1804L280.1 134.783C279.802 134.544 279.501 134.308 279.2 134.073L321.436 81.4637L321.884 81.8232ZM158.818 129.22C158.498 129.431 158.18 129.643 157.863 129.858L120.736 73.2121L121.215 72.8973L121.696 72.5838L158.818 129.22ZM308.39 72.1068L308.873 72.417L272.359 129.165C272.04 128.955 271.72 128.747 271.399 128.54L307.909 71.7966L308.39 72.1068ZM159.875 128.533C159.553 128.74 159.232 128.948 158.913 129.158L121.791 72.5211L122.27 72.2065L122.751 71.893L159.875 128.533ZM307.331 71.4249L307.813 71.7351L271.304 128.479C270.981 128.273 270.658 128.069 270.334 127.866L306.849 71.1147L307.331 71.4249ZM168.133 123.762C167.794 123.938 167.455 124.115 167.117 124.294L136.123 64.0958L136.633 63.8327L137.144 63.5707L168.133 123.762ZM169.255 123.189C168.914 123.36 168.574 123.534 168.234 123.709L137.243 63.518L137.755 63.2559L138.264 62.9939L169.255 123.189ZM293.411 63.4307L263.019 123.705C262.68 123.529 262.338 123.356 261.996 123.184L292.386 62.9156L293.411 63.4307ZM292.283 62.863L261.894 123.131C261.552 122.959 261.209 122.792 260.865 122.623L291.259 62.3478L292.283 62.863ZM177.968 119.303C177.613 119.441 177.257 119.584 176.903 119.727L152.38 56.6369L153.448 56.2225L177.968 119.303ZM179.145 118.851C178.787 118.986 178.43 119.124 178.075 119.263L153.554 56.1799L154.623 55.7657L179.145 118.851ZM277.09 56.1094L253.158 119.25C252.802 119.111 252.446 118.975 252.088 118.841L276.019 55.7041L277.09 56.1094ZM275.913 55.6627L251.981 118.8C251.625 118.666 251.267 118.533 250.907 118.404L274.842 55.2573L275.913 55.6627ZM188.22 115.902C187.85 116.003 187.483 116.107 187.116 116.212L169.325 50.9192L170.431 50.618L188.22 115.902ZM189.44 115.576C189.069 115.672 188.7 115.771 188.331 115.872L170.543 50.5878L171.649 50.2865L189.44 115.576ZM259.543 50.3895L260.096 50.5351L242.887 115.859C242.519 115.759 242.15 115.661 241.779 115.565L258.988 50.244L259.543 50.3895ZM258.322 50.0682L258.878 50.2149L241.67 115.536C241.3 115.44 240.93 115.347 240.558 115.255L257.769 49.9226L258.322 50.0682ZM198.775 113.596C198.396 113.658 198.019 113.723 197.643 113.789L186.777 47.0033L187.344 46.9126L187.909 46.8197L198.775 113.596ZM200.021 113.4C199.643 113.458 199.264 113.517 198.887 113.578L188.022 46.8017L188.589 46.7088L189.154 46.617L200.021 113.4ZM242.048 46.6808L242.614 46.7671L232.322 113.569C231.944 113.508 231.567 113.45 231.187 113.392L241.48 46.5923L242.048 46.6808ZM240.8 46.4882L241.366 46.5766L231.075 113.376C230.697 113.319 230.318 113.263 229.939 113.211L240.232 46.402L240.8 46.4882ZM209.513 112.408C209.131 112.43 208.749 112.454 208.369 112.481L204.542 44.9339L205.115 44.9015L205.688 44.869L209.513 112.408ZM210.771 112.342C210.389 112.36 210.007 112.38 209.626 112.401L205.801 44.8622L206.374 44.8298L206.947 44.7973L210.771 112.342ZM224.831 44.8477L221.577 112.398C221.197 112.376 220.815 112.357 220.432 112.34L223.686 44.7929L224.831 44.8477ZM223.571 44.7872L220.317 112.335C219.935 112.318 219.553 112.302 219.172 112.289L222.427 44.7323L223.571 44.7872Z" fill="var(--fill-0, #181818)"/>
</g>
</svg>
